<svg width="512" height="512" viewBox="0 0 512 512" fill="none" xmlns="http://www.w3.org/2000/svg">
<circle cx="256" cy="256" r="256" fill="white"/>
<path d="M394.006 393.983H107.467C96.1634 393.983 87 403.165 87 414.491C87 425.818 96.1634 435 107.467 435H394.006C405.31 435 414.473 425.818 414.473 414.491C414.473 403.165 405.31 393.983 394.006 393.983Z" fill="#FFDD00"/>
<path d="M127.934 414.491V250.421C127.934 239.095 118.771 229.913 107.467 229.913C96.1634 229.913 87 239.095 87 250.421L87 414.491C87 425.818 96.1634 435 107.467 435C118.771 435 127.934 425.818 127.934 414.491Z" fill="#FFDD00"/>
<path d="M377.272 315.295C377.272 305.582 379.63 298.756 384.345 294.819C389.061 290.881 394.694 288.912 401.243 288.912C408.054 288.912 413.818 290.881 418.534 294.819C423.511 298.756 426 305.582 426 315.295C426 324.745 423.511 331.57 418.534 335.771C413.818 339.971 408.054 342.071 401.243 342.071C394.694 342.071 389.061 339.971 384.345 335.771C379.63 331.57 377.272 324.745 377.272 315.295Z" fill="#D60F84"/>
<path d="M182.684 344.762C174.155 344.762 169.892 340.756 169.892 332.745V127.016C169.892 119.006 174.155 115 182.684 115H237.049C277.983 115 305.592 120.074 319.877 130.222C334.267 140.262 341.463 155.75 341.463 176.686C341.463 191.32 336.08 202.643 325.314 210.653C314.653 218.665 304.314 223.311 294.293 224.594V225.074C303.993 225.715 315.399 230.628 328.511 239.814C341.623 249.001 348.179 261.979 348.179 278.749C348.179 298.404 340.184 314.319 324.194 326.496C308.204 338.673 281.821 344.762 245.044 344.762H182.684ZM216.582 305.667H239.927C262.526 305.667 277.877 303.691 285.978 299.738C294.186 295.786 298.29 287.775 298.29 275.705C298.29 264.382 293.547 256.585 284.059 252.312C274.679 247.933 259.968 245.743 239.927 245.743H216.582V305.667ZM216.582 207.93H237.529C251.28 207.93 264.125 205.526 276.065 200.72C288.11 195.913 294.133 188.436 294.133 178.288C294.133 170.384 290.775 164.402 284.059 160.343C277.45 156.177 261.94 154.095 237.529 154.095H216.582V207.93Z" fill="#1D3D58"/>
</svg>
